<svg width="16" height="17" viewBox="0 0 16 17" fill="none" xmlns="http://www.w3.org/2000/svg">
<path d="M7.99996 15.1666C9.3185 15.1666 10.6074 14.7756 11.7038 14.0431C12.8001 13.3105 13.6546 12.2694 14.1592 11.0512C14.6637 9.83301 14.7958 8.49256 14.5385 7.19936C14.2813 5.90615 13.6464 4.71826 12.714 3.78591C11.7817 2.85356 10.5938 2.21863 9.30056 1.96139C8.00735 1.70415 6.66691 1.83618 5.44873 2.34076C4.23056 2.84535 3.18937 3.69983 2.45683 4.79616C1.72428 5.89249 1.33329 7.18142 1.33329 8.49996C1.33523 10.2675 2.03823 11.962 3.28806 13.2119C4.53788 14.4617 6.23244 15.1647 7.99996 15.1666Z" fill="#00529C"/>
<path d="M7.33329 11.8333H8.66663V7.16659H7.33329L7.33329 11.8333Z" fill="white"/>
<path d="M7.33329 6.5H8.66663V5.16667H7.33329V6.5Z" fill="white"/>
</svg>
